<?xml version="1.0" encoding="utf-8"?>
<!-- Generator: Adobe Illustrator 19.2.0, SVG Export Plug-In . SVG Version: 6.00 Build 0)  -->
<svg version="1.1" id="Layer_3" xmlns="http://www.w3.org/2000/svg" xmlns:xlink="http://www.w3.org/1999/xlink" x="0px" y="0px"
	 viewBox="0 0 117.3 45" style="enable-background:new 0 0 117.3 45;" xml:space="preserve">
<style type="text/css">
	.Arched_x0020_Green{fill:url(#SVGID_1_);stroke:#FFFFFF;stroke-width:0.25;stroke-miterlimit:1;}
	.st0{fill:#1F9AB7;}
	.st1{fill:#323333;}
	.st2{fill:none;}
	.st3{fill:#FFFFFF;}
</style>
<linearGradient id="SVGID_1_" gradientUnits="userSpaceOnUse" x1="-66.2852" y1="105.7517" x2="-65.5781" y2="105.0446">
	<stop  offset="0" style="stop-color:#209F3C"/>
	<stop  offset="0.9831" style="stop-color:#253A1E"/>
</linearGradient>
<g>
	<g>
		<path class="st0" d="M39,39.3c-0.3-0.2-0.6-0.3-1-0.3c-0.3,0-0.6,0.1-0.8,0.2c-0.2,0.1-0.4,0.3-0.6,0.5c-0.1,0.2-0.3,0.4-0.3,0.7
			c-0.1,0.3-0.1,0.5-0.1,0.8c0,0.3,0,0.6,0.1,0.9c0.1,0.3,0.2,0.5,0.3,0.7c0.1,0.2,0.3,0.4,0.6,0.5c0.2,0.1,0.5,0.2,0.8,0.2
			c0.2,0,0.4,0,0.6-0.1c0.2-0.1,0.3-0.2,0.5-0.3c0.1-0.1,0.2-0.3,0.3-0.5c0.1-0.2,0.1-0.4,0.1-0.6h0.7c-0.1,0.7-0.3,1.2-0.7,1.6
			c-0.4,0.4-0.9,0.6-1.6,0.6c-0.4,0-0.8-0.1-1.1-0.2c-0.3-0.1-0.6-0.3-0.8-0.6c-0.2-0.3-0.4-0.5-0.5-0.9c-0.1-0.3-0.2-0.7-0.2-1.1
			c0-0.4,0.1-0.8,0.2-1.1c0.1-0.3,0.3-0.6,0.5-0.9c0.2-0.3,0.5-0.5,0.8-0.6c0.3-0.1,0.7-0.2,1.1-0.2c0.3,0,0.5,0,0.8,0.1
			c0.2,0.1,0.5,0.2,0.7,0.3c0.2,0.1,0.4,0.3,0.5,0.5c0.1,0.2,0.2,0.5,0.3,0.8h-0.7C39.4,39.8,39.3,39.5,39,39.3z"/>
		<path class="st0" d="M41,40.2c0.1-0.3,0.3-0.6,0.5-0.9c0.2-0.3,0.5-0.5,0.8-0.6c0.3-0.2,0.7-0.2,1.1-0.2c0.4,0,0.8,0.1,1.1,0.2
			c0.3,0.2,0.6,0.4,0.8,0.6c0.2,0.3,0.4,0.6,0.5,0.9c0.1,0.3,0.2,0.7,0.2,1.1c0,0.4-0.1,0.7-0.2,1.1c-0.1,0.3-0.3,0.6-0.5,0.9
			c-0.2,0.3-0.5,0.5-0.8,0.6c-0.3,0.2-0.7,0.2-1.1,0.2c-0.4,0-0.8-0.1-1.1-0.2c-0.3-0.2-0.6-0.4-0.8-0.6c-0.2-0.3-0.4-0.6-0.5-0.9
			c-0.1-0.3-0.2-0.7-0.2-1.1C40.9,40.9,40.9,40.6,41,40.2z M41.7,42.1c0.1,0.3,0.2,0.5,0.3,0.7c0.1,0.2,0.3,0.4,0.6,0.5
			c0.2,0.1,0.5,0.2,0.8,0.2c0.3,0,0.6-0.1,0.8-0.2c0.2-0.1,0.4-0.3,0.6-0.5c0.1-0.2,0.3-0.4,0.3-0.7c0.1-0.3,0.1-0.5,0.1-0.8
			c0-0.3,0-0.5-0.1-0.8c-0.1-0.3-0.2-0.5-0.3-0.7c-0.2-0.2-0.3-0.4-0.6-0.5c-0.2-0.1-0.5-0.2-0.8-0.2c-0.3,0-0.6,0.1-0.8,0.2
			c-0.2,0.1-0.4,0.3-0.6,0.5c-0.1,0.2-0.3,0.4-0.3,0.7c-0.1,0.3-0.1,0.5-0.1,0.8C41.6,41.5,41.6,41.8,41.7,42.1z"/>
		<path class="st0" d="M49.4,38.6c0.5,0,0.9,0.1,1.2,0.4c0.3,0.3,0.4,0.6,0.4,1c0,0.3-0.1,0.6-0.2,0.9c-0.1,0.2-0.4,0.4-0.7,0.5v0
			c0.2,0,0.3,0.1,0.4,0.1c0.1,0.1,0.2,0.2,0.2,0.3c0.1,0.1,0.1,0.2,0.1,0.3c0,0.1,0,0.2,0.1,0.4c0,0.1,0,0.3,0,0.4
			c0,0.1,0,0.3,0,0.4c0,0.1,0,0.3,0.1,0.4c0,0.1,0.1,0.2,0.2,0.3h-0.8c-0.1-0.1-0.1-0.1-0.1-0.2c0-0.1,0-0.2,0-0.3
			c0-0.1,0-0.2,0-0.4c0-0.1,0-0.3,0-0.4c0-0.1,0-0.3-0.1-0.4c0-0.1-0.1-0.2-0.1-0.3c-0.1-0.1-0.2-0.2-0.3-0.2
			c-0.1-0.1-0.2-0.1-0.4-0.1h-1.7v2.3h-0.7v-5.4H49.4z M49.5,41c0.1,0,0.3-0.1,0.4-0.1c0.1-0.1,0.2-0.2,0.3-0.3
			c0.1-0.1,0.1-0.3,0.1-0.5c0-0.3-0.1-0.5-0.2-0.7c-0.2-0.2-0.4-0.3-0.7-0.3h-1.8v1.9h1.5C49.2,41.1,49.4,41,49.5,41z"/>
		<path class="st0" d="M54.3,38.6c0.5,0,0.9,0.1,1.2,0.4c0.3,0.3,0.4,0.7,0.4,1.2s-0.1,0.9-0.4,1.2c-0.3,0.3-0.7,0.4-1.2,0.4h-1.6
			v2.2H52v-5.4H54.3z M54.1,41.2c0.4,0,0.7-0.1,0.9-0.2c0.2-0.2,0.3-0.4,0.3-0.7s-0.1-0.6-0.3-0.7c-0.2-0.2-0.5-0.3-0.9-0.3h-1.4v2
			H54.1z"/>
		<path class="st0" d="M56.7,40.2c0.1-0.3,0.3-0.6,0.5-0.9c0.2-0.3,0.5-0.5,0.8-0.6c0.3-0.2,0.7-0.2,1.1-0.2c0.4,0,0.8,0.1,1.1,0.2
			c0.3,0.2,0.6,0.4,0.8,0.6c0.2,0.3,0.4,0.6,0.5,0.9c0.1,0.3,0.2,0.7,0.2,1.1c0,0.4-0.1,0.7-0.2,1.1c-0.1,0.3-0.3,0.6-0.5,0.9
			c-0.2,0.3-0.5,0.5-0.8,0.6c-0.3,0.2-0.7,0.2-1.1,0.2c-0.4,0-0.8-0.1-1.1-0.2c-0.3-0.2-0.6-0.4-0.8-0.6c-0.2-0.3-0.4-0.6-0.5-0.9
			c-0.1-0.3-0.2-0.7-0.2-1.1C56.6,40.9,56.6,40.6,56.7,40.2z M57.4,42.1c0.1,0.3,0.2,0.5,0.3,0.7c0.1,0.2,0.3,0.4,0.6,0.5
			c0.2,0.1,0.5,0.2,0.8,0.2c0.3,0,0.6-0.1,0.8-0.2c0.2-0.1,0.4-0.3,0.6-0.5c0.2-0.2,0.3-0.4,0.3-0.7c0.1-0.3,0.1-0.5,0.1-0.8
			c0-0.3,0-0.5-0.1-0.8c-0.1-0.3-0.2-0.5-0.3-0.7c-0.1-0.2-0.3-0.4-0.6-0.5c-0.2-0.1-0.5-0.2-0.8-0.2c-0.3,0-0.6,0.1-0.8,0.2
			c-0.2,0.1-0.4,0.3-0.6,0.5c-0.1,0.2-0.3,0.4-0.3,0.7c-0.1,0.3-0.1,0.5-0.1,0.8C57.3,41.5,57.3,41.8,57.4,42.1z"/>
		<path class="st0" d="M65.1,38.6c0.5,0,0.9,0.1,1.2,0.4c0.3,0.3,0.4,0.6,0.4,1c0,0.3-0.1,0.6-0.2,0.9c-0.1,0.2-0.4,0.4-0.7,0.5v0
			c0.2,0,0.3,0.1,0.4,0.1c0.1,0.1,0.2,0.2,0.2,0.3c0.1,0.1,0.1,0.2,0.1,0.3c0,0.1,0,0.2,0.1,0.4c0,0.1,0,0.3,0,0.4
			c0,0.1,0,0.3,0,0.4c0,0.1,0,0.3,0.1,0.4c0,0.1,0.1,0.2,0.2,0.3h-0.8C66,43.9,66,43.8,66,43.7c0-0.1,0-0.2,0-0.3c0-0.1,0-0.2,0-0.4
			c0-0.1,0-0.3,0-0.4c0-0.1,0-0.3-0.1-0.4c0-0.1-0.1-0.2-0.1-0.3c-0.1-0.1-0.1-0.2-0.3-0.2c-0.1-0.1-0.2-0.1-0.4-0.1h-1.7v2.3h-0.7
			v-5.4H65.1z M65.2,41c0.2,0,0.3-0.1,0.4-0.1c0.1-0.1,0.2-0.2,0.3-0.3c0.1-0.1,0.1-0.3,0.1-0.5c0-0.3-0.1-0.5-0.2-0.7
			c-0.1-0.2-0.4-0.3-0.7-0.3h-1.8v1.9h1.5C64.9,41.1,65.1,41,65.2,41z"/>
		<path class="st0" d="M69.9,38.6l2.1,5.4h-0.8l-0.6-1.6h-2.3l-0.6,1.6h-0.7l2.1-5.4H69.9z M70.4,41.7l-0.9-2.5h0l-0.9,2.5H70.4z"/>
		<path class="st0" d="M71.3,39.2v-0.6h4.3v0.6h-1.8v4.8h-0.7v-4.8H71.3z"/>
		<path class="st0" d="M79.9,38.6v0.6h-3v1.7h2.8v0.6h-2.8v1.9h3v0.6h-3.7v-5.4H79.9z"/>
		<path class="st0" d="M83.5,38.6v2.3h2.8v-2.3h0.7v5.4h-0.7v-2.5h-2.8v2.5h-0.7v-5.4H83.5z"/>
		<path class="st0" d="M88.1,40.2c0.1-0.3,0.3-0.6,0.5-0.9c0.2-0.3,0.5-0.5,0.8-0.6c0.3-0.2,0.7-0.2,1.1-0.2c0.4,0,0.8,0.1,1.1,0.2
			c0.3,0.2,0.6,0.4,0.8,0.6c0.2,0.3,0.4,0.6,0.5,0.9c0.1,0.3,0.2,0.7,0.2,1.1c0,0.4-0.1,0.7-0.2,1.1c-0.1,0.3-0.3,0.6-0.5,0.9
			c-0.2,0.3-0.5,0.5-0.8,0.6c-0.3,0.2-0.7,0.2-1.1,0.2c-0.4,0-0.8-0.1-1.1-0.2c-0.3-0.2-0.6-0.4-0.8-0.6c-0.2-0.3-0.4-0.6-0.5-0.9
			c-0.1-0.3-0.2-0.7-0.2-1.1C87.9,40.9,88,40.6,88.1,40.2z M88.8,42.1c0.1,0.3,0.2,0.5,0.3,0.7s0.3,0.4,0.6,0.5
			c0.2,0.1,0.5,0.2,0.8,0.2c0.3,0,0.6-0.1,0.8-0.2c0.2-0.1,0.4-0.3,0.6-0.5c0.2-0.2,0.3-0.4,0.3-0.7c0.1-0.3,0.1-0.5,0.1-0.8
			c0-0.3,0-0.5-0.1-0.8c-0.1-0.3-0.2-0.5-0.3-0.7c-0.1-0.2-0.3-0.4-0.6-0.5c-0.2-0.1-0.5-0.2-0.8-0.2c-0.3,0-0.6,0.1-0.8,0.2
			c-0.2,0.1-0.4,0.3-0.6,0.5c-0.1,0.2-0.3,0.4-0.3,0.7c-0.1,0.3-0.1,0.5-0.1,0.8C88.6,41.5,88.7,41.8,88.8,42.1z"/>
		<path class="st0" d="M97.7,43.5c-0.4,0.3-0.9,0.5-1.6,0.5c-0.7,0-1.2-0.2-1.6-0.5c-0.4-0.3-0.6-0.8-0.6-1.6v-3.4h0.7V42
			c0,0.5,0.1,0.8,0.4,1.1c0.3,0.2,0.6,0.4,1.1,0.4c0.5,0,0.8-0.1,1-0.4c0.2-0.2,0.4-0.6,0.4-1.1v-3.4h0.7V42
			C98.2,42.7,98,43.2,97.7,43.5z"/>
		<path class="st0" d="M102,39.3c-0.2-0.2-0.5-0.3-0.9-0.3c-0.1,0-0.3,0-0.4,0c-0.1,0-0.3,0.1-0.4,0.1s-0.2,0.2-0.3,0.3
			c-0.1,0.1-0.1,0.3-0.1,0.4c0,0.2,0,0.3,0.1,0.4c0.1,0.1,0.2,0.2,0.4,0.3c0.2,0.1,0.3,0.1,0.6,0.2c0.2,0,0.4,0.1,0.6,0.1
			c0.2,0.1,0.4,0.1,0.6,0.2c0.2,0.1,0.4,0.2,0.6,0.3c0.2,0.1,0.3,0.3,0.4,0.4c0.1,0.2,0.1,0.4,0.1,0.7c0,0.3-0.1,0.5-0.2,0.7
			c-0.1,0.2-0.3,0.4-0.5,0.5c-0.2,0.1-0.4,0.2-0.7,0.3c-0.2,0.1-0.5,0.1-0.7,0.1c-0.3,0-0.6,0-0.9-0.1c-0.3-0.1-0.5-0.2-0.7-0.3
			c-0.2-0.2-0.4-0.3-0.5-0.6c-0.1-0.2-0.2-0.5-0.2-0.8h0.7c0,0.2,0,0.4,0.1,0.6c0.1,0.2,0.2,0.3,0.3,0.4c0.1,0.1,0.3,0.2,0.5,0.2
			c0.2,0.1,0.4,0.1,0.6,0.1c0.2,0,0.3,0,0.5,0c0.2,0,0.3-0.1,0.4-0.2c0.1-0.1,0.2-0.2,0.3-0.3c0.1-0.1,0.1-0.3,0.1-0.5
			c0-0.2,0-0.3-0.1-0.4c-0.1-0.1-0.2-0.2-0.4-0.3c-0.2-0.1-0.3-0.1-0.6-0.2c-0.2,0-0.4-0.1-0.6-0.1c-0.2,0-0.4-0.1-0.6-0.2
			c-0.2-0.1-0.4-0.1-0.6-0.2c-0.2-0.1-0.3-0.2-0.4-0.4c-0.1-0.2-0.1-0.4-0.1-0.6c0-0.3,0.1-0.5,0.2-0.7c0.1-0.2,0.3-0.4,0.4-0.5
			c0.2-0.1,0.4-0.2,0.6-0.3c0.2-0.1,0.5-0.1,0.7-0.1c0.3,0,0.5,0,0.8,0.1c0.2,0.1,0.4,0.2,0.6,0.3c0.2,0.1,0.3,0.3,0.4,0.5
			c0.1,0.2,0.2,0.5,0.2,0.8h-0.7C102.4,39.8,102.3,39.5,102,39.3z"/>
		<path class="st0" d="M104.9,38.6v5.4h-0.7v-5.4H104.9z"/>
		<path class="st0" d="M106.9,38.6l2.8,4.3h0v-4.3h0.7v5.4h-0.8l-2.8-4.3h0v4.3h-0.7v-5.4H106.9z"/>
		<path class="st0" d="M114.8,43.9c-0.3,0.1-0.6,0.2-0.9,0.2c-0.4,0-0.8-0.1-1.1-0.2c-0.3-0.1-0.6-0.3-0.8-0.6
			c-0.2-0.2-0.4-0.5-0.5-0.9c-0.1-0.3-0.2-0.7-0.2-1c0-0.4,0.1-0.8,0.2-1.1c0.1-0.4,0.3-0.7,0.5-0.9c0.2-0.3,0.5-0.5,0.8-0.6
			c0.3-0.2,0.7-0.2,1.1-0.2c0.3,0,0.6,0,0.8,0.1c0.3,0.1,0.5,0.2,0.7,0.3c0.2,0.1,0.4,0.3,0.5,0.6c0.1,0.2,0.2,0.5,0.3,0.8h-0.7
			c0-0.2-0.1-0.4-0.2-0.5c-0.1-0.1-0.2-0.3-0.4-0.4c-0.1-0.1-0.3-0.2-0.5-0.2c-0.2,0-0.4-0.1-0.6-0.1c-0.3,0-0.6,0.1-0.8,0.2
			c-0.2,0.1-0.4,0.3-0.6,0.5c-0.1,0.2-0.3,0.5-0.3,0.7c-0.1,0.3-0.1,0.6-0.1,0.8c0,0.3,0,0.5,0.1,0.8c0.1,0.3,0.2,0.5,0.4,0.7
			c0.2,0.2,0.3,0.4,0.6,0.5c0.2,0.1,0.5,0.2,0.8,0.2c0.3,0,0.5,0,0.7-0.1c0.2-0.1,0.4-0.2,0.5-0.4c0.1-0.2,0.3-0.3,0.3-0.6
			c0.1-0.2,0.1-0.4,0.1-0.7h-1.7v-0.6h2.3v2.8h-0.4l-0.2-0.7C115.4,43.6,115.1,43.8,114.8,43.9z"/>
	</g>
	<g>
		<path class="st1" d="M72.8,31.4l-1.9,1.6c-0.2-0.2-1-1.1-2.4-2.6c-1.4-1.5-3.4-3.9-6.3-7.1l0-0.1c0.4-0.1,0.9-0.3,1.5-0.7
			c0.6-0.3,1.2-0.7,1.6-1.1c0.4-0.3,0.7-0.8,1-1.3c0.3-0.5,0.4-1.2,0.4-2c0-0.8-0.2-1.4-0.6-2c-0.4-0.6-1-1-1.7-1.2
			c-0.6-0.2-1.2-0.4-1.8-0.4c-0.6,0-1.2-0.1-1.8-0.1c-0.4,0-0.6,0-0.8,0c-0.2,0-0.3,0-0.4,0c0,1.9,0,3.6,0,5.1c0,1.5,0,2.5,0,3.1
			c0,1.4,0,3.3,0,5.6c0,2.4,0,3.9,0,4.5h-2.5c0-0.6,0-1.8,0-3.5c0-1.7,0-3.9,0-6.5c0-0.5,0-1.4,0-2.8c0-1.4,0-3.8-0.1-7.5
			c0.1,0,0.6,0,1.5,0c0.9,0,1.7,0,2.5,0c0.9,0,1.7,0.1,2.6,0.2c0.8,0.1,1.6,0.3,2.4,0.7c1,0.4,1.8,1,2.4,1.9
			c0.6,0.8,0.9,1.8,0.9,2.9c0,1.4-0.4,2.6-1.3,3.6c-0.9,1-1.7,1.7-2.5,2.1v0.1c1.4,1.6,2.9,3.3,4.6,5C71.8,30.3,72.7,31.2,72.8,31.4
			z"/>
		<path class="st1" d="M88.2,32.5c-0.1,0-0.8,0-2,0c-1.3,0-2.8,0-4.7,0c-1.3,0-2.5,0-3.5,0c-1.1,0-2,0-2.7,0c0-0.6,0-1.9,0.1-3.8
			c0-1.9,0-4,0-6c0-1.1,0-2.7,0-4.5c0-1.9,0-3.8-0.1-5.8c0.7,0,1.6,0,2.7,0c1.1,0,2.2,0,3.3,0c1.9,0,3.5,0,4.7,0c1.2,0,1.9,0,2,0
			v2.1c-0.1,0-0.7,0-1.9,0c-1.2,0-2.6,0-4.4,0c-0.8,0-1.5,0-2.2,0c-0.7,0-1.3,0-1.7,0c0,1.1,0,2.3,0,3.4c0,1.1,0,2.2,0,3.2
			c0.5,0,1,0,1.6,0c0.6,0,1.2,0,1.7,0c1.8,0,3.4,0,4.8,0c1.4,0,2.1,0,2.2,0v2.1c-0.1,0-0.9,0-2.5,0c-1.6,0-3,0-4.3,0
			c-0.5,0-1.1,0-1.7,0c-0.7,0-1.2,0-1.7,0c0,1.9,0,3.4,0,4.5c0,1.1,0,2.1,0,2.8c0.6,0,1.3,0,2.2,0c0.8,0,1.8,0,2.7,0
			c1.5,0,2.8,0,3.8,0c1,0,1.6,0,1.7,0V32.5z"/>
		<path class="st1" d="M102.6,26.9c0,1-0.2,2-0.7,2.7c-0.5,0.8-1.2,1.4-2,1.9c-0.8,0.4-1.6,0.8-2.6,1c-1,0.2-2.1,0.3-3.3,0.3
			c-0.6,0-1.3,0-2-0.1c-0.7,0-1.1-0.1-1.2-0.1l-0.1-2.2c0.1,0,0.5,0.1,1.2,0.1c0.6,0.1,1.4,0.1,2.3,0.1c0.5,0,1.2-0.1,2.1-0.2
			c0.8-0.1,1.5-0.3,2-0.5c0.6-0.3,1.1-0.6,1.4-1.1c0.3-0.4,0.5-0.9,0.5-1.6c0-0.7-0.2-1.2-0.5-1.7c-0.3-0.5-0.8-0.9-1.6-1.4
			c-0.5-0.3-1.1-0.6-1.8-1c-0.8-0.4-1.4-0.7-2-1.1c-1-0.6-1.8-1.3-2.2-2.1c-0.4-0.7-0.7-1.6-0.7-2.5c0-0.9,0.2-1.7,0.6-2.4
			c0.4-0.7,0.9-1.3,1.6-1.7c0.6-0.5,1.4-0.8,2.4-1.1c0.9-0.2,2-0.4,3.1-0.4c0.6,0,1.3,0,1.9,0.1c0.6,0,1,0.1,1.1,0.1l0.2,2.2
			c-0.1,0-0.5,0-1.1-0.1c-0.6-0.1-1.4-0.1-2.4-0.1c-0.6,0-1.1,0.1-1.7,0.2c-0.6,0.1-1.1,0.3-1.6,0.6c-0.4,0.2-0.7,0.6-1,1
			c-0.3,0.4-0.4,0.9-0.4,1.5c0,0.5,0.1,1,0.4,1.4c0.3,0.5,0.9,0.9,1.7,1.4c0.4,0.3,1,0.5,1.6,0.9c0.7,0.3,1.4,0.7,2,1.1
			c1,0.6,1.8,1.3,2.3,2.1C102.4,25,102.6,25.9,102.6,26.9z"/>
		<path class="st1" d="M117.3,26.9c0,1-0.2,2-0.7,2.7c-0.5,0.8-1.2,1.4-2,1.9c-0.8,0.4-1.6,0.8-2.6,1c-1,0.2-2.1,0.3-3.3,0.3
			c-0.6,0-1.3,0-2-0.1c-0.7,0-1.1-0.1-1.2-0.1l-0.1-2.2c0.1,0,0.5,0.1,1.2,0.1c0.6,0.1,1.4,0.1,2.3,0.1c0.5,0,1.2-0.1,2.1-0.2
			c0.8-0.1,1.5-0.3,2-0.5c0.6-0.3,1.1-0.6,1.4-1.1c0.3-0.4,0.5-0.9,0.5-1.6c0-0.7-0.2-1.2-0.5-1.7c-0.3-0.5-0.8-0.9-1.6-1.4
			c-0.5-0.3-1.1-0.6-1.8-1c-0.8-0.4-1.4-0.7-2-1.1c-1-0.6-1.8-1.3-2.2-2.1c-0.4-0.7-0.7-1.6-0.7-2.5c0-0.9,0.2-1.7,0.6-2.4
			c0.4-0.7,0.9-1.3,1.6-1.7c0.6-0.5,1.4-0.8,2.4-1.1c0.9-0.2,2-0.4,3.1-0.4c0.6,0,1.3,0,1.9,0.1c0.6,0,1,0.1,1.1,0.1l0.2,2.2
			c-0.1,0-0.5,0-1.1-0.1c-0.6-0.1-1.4-0.1-2.4-0.1c-0.6,0-1.1,0.1-1.7,0.2c-0.6,0.1-1.1,0.3-1.6,0.6c-0.4,0.2-0.7,0.6-1,1
			c-0.3,0.4-0.4,0.9-0.4,1.5c0,0.5,0.1,1,0.4,1.4c0.3,0.5,0.9,0.9,1.7,1.4c0.4,0.3,1,0.5,1.6,0.9c0.7,0.3,1.4,0.7,2,1.1
			c1,0.6,1.8,1.3,2.3,2.1C117.1,25,117.3,25.9,117.3,26.9z"/>
	</g>
	<path class="st2" d="M26.9,24c-1.7,2.2-3.3,4.2-4.7,6c-1.4,1.8-2.1,2.8-2.2,2.9l-1.8-1.5c0.1-0.1,0.7-0.8,1.8-2.2
		c1.1-1.4,3-3.7,5.5-6.9v0c-0.4-0.5-0.8-1-1.2-1.6c-0.5,0.6-0.9,1.2-1.3,1.7c-2,2.8-4.6,6.3-7,9.4v0.7c0,0-0.2,0-0.5,0
		c-2.3,2.9-4.4,5.3-5.6,6.1c-1.2,0.8-3.4,1-5.4,1c-2.1,0-4-0.3-4-0.3c3.4,1.8,6,2.7,8.3,2.7c4.7,0,7.9-3.7,13.1-10.1
		c1.8-2.2,3.8-4.6,5.9-6.9C27.5,24.8,27.2,24.4,26.9,24L26.9,24z"/>
	<path class="st2" d="M43,24.2c0.1,0,0.2,0,0.3,0s0.2,0,0.3,0c0.7,0,1.4,0,2.2-0.1c0.8-0.1,1.4-0.3,2-0.5c0.9-0.4,1.7-1,2.2-1.7
		c0.5-0.7,0.7-1.6,0.7-2.7c0-1-0.2-1.9-0.7-2.7c-0.5-0.7-1.2-1.3-2.2-1.7c-0.6-0.3-1.3-0.4-2-0.5c-0.7-0.1-1.4-0.1-2.2-0.1
		c-0.1,0-0.2,0-0.3,0c-0.1,0-0.2,0-0.3,0c0,0.1,0,0.9,0,2.3c0,1.4,0,2.5,0,3.3c0,0.7,0,1.6,0,2.7C43,23.5,43,24.1,43,24.2z"/>
	<path class="st1" d="M14.3,30.4c-1,0-2.3,0-3.8,0c-1,0-1.9,0-2.7,0c-0.8,0-1.6,0-2.2,0c0-0.8,0-1.7,0-2.8c0-1.1,0-2.6,0-4.5
		c0.5,0,1,0,1.7,0c0.7,0,1.2,0,1.7,0c1.3,0,2.8,0,4.3,0c1.6,0,2.4,0,2.5,0V21c-0.1,0-0.8,0-2.2,0c-1.4,0-3,0-4.8,0c-0.5,0-1,0-1.7,0
		c-0.6,0-1.2,0-1.6,0c0-1,0-2.1,0-3.2c0-1.1,0-2.3,0-3.4c0.4,0,1,0,1.7,0c0.7,0,1.5,0,2.2,0c1.7,0,3.2,0,4.4,0c1.2,0,1.8,0,1.9,0
		v-2.1c-0.1,0-0.8,0-2,0c-1.2,0-2.8,0-4.7,0c-1.1,0-2.2,0-3.3,0c-1.1,0-2,0-2.7,0c0,2,0.1,4,0.1,5.8c0,1.9,0,3.4,0,4.5
		c0,2.1,0,4.1,0,6c0,1.9,0,3.2-0.1,3.8c0.7,0,1.6,0,2.7,0c1.1,0,2.2,0,3.5,0c1.8,0,3.4,0,4.7,0c0,0,0.1,0,0.1,0
		c0.5-0.7,1.1-1.4,1.6-2.1C15.4,30.4,14.9,30.4,14.3,30.4z"/>
	<path class="st1" d="M31.7,30.3c1.2,1.6,1.8,2.4,2,2.6l2-1.7c-0.1-0.1-0.9-1.1-2.4-3c-1-1.3-2.1-2.6-3.2-4
		c-0.5,0.6-1.1,1.2-1.6,1.8C29.8,27.8,30.9,29.2,31.7,30.3z"/>
	<path class="st1" d="M22.6,14.6c-1.3-1.6-1.9-2.5-2.1-2.7l-2,1.5c0.2,0.2,1,1.3,2.7,3.4c0.8,1.1,1.6,2.1,2.4,3.1
		c0.4-0.6,0.9-1.2,1.5-1.9C24.2,16.7,23.3,15.6,22.6,14.6z"/>
	<path class="st1" d="M40.6,17.6c0,1.6,0,2.9,0,4c0,3.4,0,6,0,7.6c0,1.6,0,2.8,0,3.4h2.5l0-6.4c1,0,1.9,0,2.7-0.1
		c0.8-0.1,1.6-0.2,2.2-0.4c1.6-0.4,2.9-1.2,3.8-2.4c1-1.2,1.4-2.5,1.4-4c0-1.2-0.2-2.3-0.7-3.2c-0.5-0.9-1.2-1.7-2.1-2.2
		c-0.8-0.5-1.9-0.9-3.1-1.1c-1-0.2-2.2-0.3-3.5-0.3c-1.1,0.7-2.1,1.5-3.2,2.3C40.6,15.7,40.6,16.6,40.6,17.6z M43,16.5
		c0-1.4,0-2.2,0-2.3c0.1,0,0.2,0,0.3,0c0.1,0,0.2,0,0.3,0c0.7,0,1.5,0,2.2,0.1c0.7,0.1,1.4,0.2,2,0.5c1,0.4,1.7,1,2.2,1.7
		c0.5,0.7,0.7,1.6,0.7,2.7c0,1.1-0.2,2-0.7,2.7c-0.5,0.7-1.2,1.3-2.2,1.7c-0.5,0.2-1.2,0.4-2,0.5c-0.8,0.1-1.5,0.1-2.2,0.1
		c-0.1,0-0.2,0-0.3,0s-0.2,0-0.3,0c0-0.1,0-0.7,0-1.7c0-1,0-1.9,0-2.7C43,19,43,17.9,43,16.5z"/>
	<g>
		<path class="st0" d="M8.7,43c-2.4,0-5.2-0.9-8.7-2.8l0.6-1.7c0,0,1.8,0.2,3.9,0.2c2.3,0,4-0.3,4.9-0.9c2.6-1.7,9.8-11.7,12.9-15.9
			C32.3,8,42.3,0.9,51.9,0.9c13.7,0,20,7.7,20.2,8.1l-1.3,1.3c-0.1,0-5.2-3.6-12.2-3.6c-2.4,0-4.8,0.4-7.1,1.3
			c-8.5,3.1-18.3,11.4-29,24.6C17.2,39.2,13.9,43,8.7,43z"/>
		<path class="st3" d="M51.9,1.9c13.4,0,19.5,7.7,19.5,7.7s-5.3-3.7-12.7-3.7c-2.3,0-4.8,0.4-7.4,1.3c-11,4-21.7,15.4-29.4,24.9
			c-5.2,6.4-8.4,10.1-13.1,10.1c-2.3,0-4.9-0.9-8.3-2.7c0,0,1.9,0.3,4,0.3c2,0,4.1-0.2,5.4-1c2.6-1.7,9-10.4,13.2-16.2
			C27.2,16.7,38.5,1.9,51.9,1.9 M51.9,0C42,0,31.7,7.2,21.5,21.4c-2.8,3.9-10.2,14.1-12.7,15.7c-0.3,0.2-1.4,0.7-4.4,0.7
			c-2,0-3.7-0.2-3.8-0.2L-0.4,41c3.7,2,6.6,2.9,9.2,2.9c5.8,0,9.7-4.7,14.6-10.7C34,20.1,42.5,11.8,50.8,8.8C53,8,56.4,7.7,58.7,7.7
			c6.7,0,11.6,3.4,11.6,3.4l2.5-2.7C72.6,8.1,66,0,51.9,0L51.9,0z"/>
	</g>
</g>
</svg>
